# xmcd
#
# Track frame offsets: 
#        150
#        17228
#        34330
#        51531
#        66727
#        79042
#        96770
#        114524
#        138824
#        154088
#        167665
#
# Disc length: 2649 seconds
#
# Revision: 0
# Processed by: cddbd v1.5.2PL0 Copyright (c) Steve Scherf et al.
# Submitted via: ExactAudioCopy v1.0b3
#
DISCID=950a570b
DTITLE=Long John Baldry - The Stony Plain Years
DYEAR=2014
DGENRE=Blues
TTITLE0=Good Morning Blues
TTITLE1=I'm Shakin'
TTITLE2=Easy Street
TTITLE3=Midnight Special
TTITLE4=Gallows Pole
TTITLE5=Midnight Hour Blues
TTITLE6=Dimples (previously unreleased)
TTITLE7=Insane Asylum (with Kathi McDonald)
TTITLE8=Midnight In New Orleans (with Amos Garrett, Gaye Delorme)
TTITLE9=Black Girl (promo only with Kathy McDonald)
TTITLE10=Time's Gettin' Tougher Than Tough (with Jimmy Witherspoon, Du
TTITLE10=ke Robillard Band)
EXTD=
EXTT0=
EXTT1=
EXTT2=
EXTT3=
EXTT4=
EXTT5=
EXTT6=
EXTT7=
EXTT8=
EXTT9=
EXTT10=
PLAYORDER=
